<svg xmlns="http://www.w3.org/2000/svg" xmlns:xlink="http://www.w3.org/1999/xlink" id="Calque_1" x="0px" y="0px" viewBox="0 0 120.3 39.3" style="enable-background:new 0 0 120.3 39.3;" xml:space="preserve"><style type="text/css">	.st0{clip-path:url(#SVGID_2_);fill:url(#SVGID_3_);}	.st1{fill:#E62E49;}	.st2{fill:none;}	.st3{fill:#1D1E1C;}	.st4{fill:#8B8C8D;}</style><g>	<g>		<g>			<defs>				<path id="SVGID_1_" d="M88.2,26.4c0,0.5,0.4,0.8,0.8,0.8c0.5,0,0.8-0.4,0.8-0.8c0-0.5-0.4-0.8-0.8-0.8     C88.5,25.6,88.2,26,88.2,26.4 M90.8,24.1c0,0.2,0.2,0.4,0.4,0.4c0.2,0,0.4-0.2,0.4-0.4c0-0.2-0.2-0.4-0.4-0.4     C91,23.7,90.8,23.8,90.8,24.1 M90.9,27.6c-1.8,1.8-4.3,2.9-7.1,2.9c-0.6,0-1.3-0.1-1.9-0.2c0,0.4-0.2,0.7-0.5,1     c0.8,0.2,1.5,0.3,2.4,0.3c3.1,0,5.8-1.2,7.8-3.2c1.6-1.6,2.8-3.8,3.1-6.2c-0.1,0-0.3,0-0.4,0c-0.2,0-0.5,0-0.7-0.1     C93.4,24.2,92.4,26.1,90.9,27.6 M73.3,21.8c-0.2,0-0.3,0-0.5-0.1c0.3,2.6,1.4,4.9,3.2,6.6c0.7,0.7,1.5,1.3,2.4,1.8l0,0     c0-0.3,0.1-0.6,0.2-0.8c-0.1-0.1-0.1-0.2-0.2-0.4c-0.6-0.4-1.2-0.8-1.7-1.3c-1.6-1.6-2.6-3.6-2.9-5.9     C73.7,21.8,73.5,21.8,73.3,21.8 M92.4,15.3c0.6,1,1,2,1.3,3.2c0.1,0.1,0.2,0.2,0.4,0.4c0.1,0,0.3,0,0.4,0c0.1,0,0.3,0,0.4,0     c-0.2-1.5-0.8-2.9-1.5-4.2C93.1,15,92.8,15.2,92.4,15.3 M82.6,12.2c0,0.3,0.2,0.5,0.5,0.5s0.5-0.2,0.5-0.5s-0.2-0.5-0.5-0.5     S82.6,11.9,82.6,12.2 M76,12.7c-1.7,1.7-2.9,4-3.2,6.6c0.1-0.1,0.3-0.1,0.5-0.1c0,0,0,0,0.1,0c0.2-0.3,0.4-0.5,0.7-0.7     c0.4-1.9,1.4-3.7,2.7-5c0.6-0.6,1.4-1.2,2.2-1.6c0.2-0.2,0.3-0.5,0.5-0.7c-0.1-0.2-0.1-0.4-0.2-0.6C78.1,11,77,11.8,76,12.7      M82.5,9.6c0.1,0.2,0.2,0.5,0.2,0.8c0,0.1,0,0.1,0,0.2c0.4,0,0.7-0.1,1.1-0.1c2.7,0,5.2,1.1,7,2.9l0.1,0     c0.2-0.3,0.4-0.5,0.8-0.6l-0.1-0.1c-2-2-4.8-3.2-7.8-3.2C83.4,9.5,83,9.5,82.5,9.6 M87.6,16c0.7,0.2,1.4,0.5,2,0.8h0l0,0     c1.4,0.7,2.7,1.7,3.7,2.9c-0.1,0.1-0.1,0.2-0.2,0.4c-2.9-0.1-5.6,0.8-7.9,2.4c-2.1,1.5-3.8,3.7-4.7,6.3c-0.1,0-0.2,0-0.3,0     c-0.3-1.4-0.3-2.8-0.1-4.1c0.3-1.9,1-3.7,2.1-5.3c0.9-1.2,2-2.3,3.3-3.1c0.2,0.2,0.6,0.4,0.9,0.4C87,16.7,87.4,16.4,87.6,16      M77.3,20.3c0-0.9,0.1-1.8,0.3-2.7c0.4-0.1,0.7-0.4,0.7-0.9c0,0,0-0.1,0-0.1c1.7-0.8,3.5-1.2,5.5-1.2c0.5,0,0.9,0,1.4,0.1     c0,0.1,0,0.1,0,0.2c-1.3,0.8-2.5,1.9-3.5,3.3c-1.2,1.7-2,3.6-2.3,5.6c-0.2,1.4-0.2,2.8,0.1,4.2C78,26.2,77.2,23.3,77.3,20.3      M79.7,10.4c0,0.3,0.1,0.5,0.2,0.7c-1.1,1.5-2,3.1-2.5,4.8c-0.4,0-0.8,0.4-0.8,0.9c0,0,0,0.1,0,0.1c-1.2,0.7-2.2,1.7-3.1,2.8     c-0.1,0-0.2,0-0.2,0c-0.5,0-0.9,0.4-0.9,0.9c0,0.5,0.4,0.9,0.9,0.9c0.5,0,0.9-0.4,0.9-0.9c0-0.2,0-0.3-0.1-0.4     c0.8-1,1.8-1.9,2.9-2.6c0,0,0,0,0,0c-0.2,0.9-0.3,1.9-0.3,2.8c-0.1,3.1,0.7,6.3,2.5,9c-0.2,0.2-0.3,0.5-0.3,0.8     c0,0.7,0.6,1.3,1.3,1.3c0.7,0,1.3-0.6,1.3-1.3c0-0.4-0.2-0.7-0.4-1c0.9-2.5,2.5-4.6,4.6-6.1c2.1-1.5,4.7-2.4,7.5-2.3     c0.1,0.6,0.6,1,1.3,1c0.7,0,1.3-0.6,1.3-1.3c0-0.7-0.6-1.3-1.3-1.3c-0.2,0-0.4,0-0.5,0.1c-1.1-1.3-2.5-2.3-4-3.1l0,0     c-0.7-0.3-1.4-0.6-2.1-0.9v0c0-0.1,0-0.1,0-0.2c1.1-0.4,2.4-0.7,3.6-0.7c0.1,0.2,0.4,0.4,0.7,0.4c0.5,0,0.9-0.4,0.9-0.9     c0-0.5-0.4-0.9-0.9-0.9c-0.4,0-0.7,0.3-0.8,0.7c-1.3,0.1-2.6,0.3-3.8,0.8c-0.2-0.3-0.6-0.5-1-0.5c-0.5,0-1,0.3-1.2,0.8     c-0.5-0.1-1-0.1-1.5-0.1c-2,0-4,0.5-5.8,1.3c0,0,0,0,0,0c0.5-1.6,1.3-3.2,2.4-4.6c0.2,0.1,0.4,0.1,0.5,0.1     c0.7,0,1.3-0.6,1.3-1.3c0-0.7-0.6-1.3-1.3-1.3C80.3,9.1,79.7,9.7,79.7,10.4"></path>			</defs>			<clipPath id="SVGID_2_">				<use xlink:href="#SVGID_1_" style="overflow:visible;"></use>			</clipPath>							<linearGradient id="SVGID_3_" gradientUnits="userSpaceOnUse" x1="-63.0816" y1="46.1978" x2="-62.6569" y2="46.1978" gradientTransform="matrix(-26.5118 45.9197 45.9197 26.5118 -3704.335 1682.9011)">				<stop offset="0" style="stop-color:#D8D8D8"></stop>				<stop offset="4.719138e-02" style="stop-color:#C3C3C3"></stop>				<stop offset="0.1496" style="stop-color:#9A9B9C"></stop>				<stop offset="0.2584" style="stop-color:#77787A"></stop>				<stop offset="0.3729" style="stop-color:#5B5C5E"></stop>				<stop offset="0.4952" style="stop-color:#454649"></stop>				<stop offset="0.6288" style="stop-color:#35373A"></stop>				<stop offset="0.7822" style="stop-color:#2C2E31"></stop>				<stop offset="1" style="stop-color:#292B2E"></stop>			</linearGradient>			<polygon class="st0" points="105.4,14.7 89.9,41.6 62.7,26 78.3,-0.9    "></polygon>		</g>		<g>			<path class="st1" d="M87.8,15.4c0,0.7-0.6,1.3-1.3,1.3c-0.7,0-1.3-0.6-1.3-1.3c0-0.7,0.6-1.3,1.3-1.3    C87.2,14.2,87.8,14.7,87.8,15.4"></path>		</g>	</g>	<g>		<path class="st2" d="M44.9,15.5c-0.5-0.5-1.1-0.9-1.8-1.2c-0.7-0.3-1.4-0.4-2.2-0.4c-0.8,0-1.5,0.1-2.2,0.4   c-0.7,0.3-1.3,0.7-1.8,1.2c-0.5,0.5-0.9,1.1-1.2,1.9c-0.3,0.7-0.4,1.6-0.4,2.5c0,0.9,0.1,1.7,0.4,2.4c0.3,0.7,0.7,1.4,1.2,1.9   c0.5,0.5,1.1,0.9,1.8,1.2s1.4,0.4,2.2,0.4c0.8,0,1.5-0.1,2.2-0.4c0.7-0.3,1.3-0.7,1.8-1.2c0.5-0.5,0.9-1.1,1.2-1.9   s0.4-1.5,0.4-2.4c0-0.9-0.1-1.8-0.4-2.5C45.8,16.6,45.4,16,44.9,15.5z"></path>		<path class="st2" d="M112.8,15.5c-0.5-0.5-1.1-0.9-1.8-1.2c-0.7-0.3-1.4-0.4-2.2-0.4c-0.8,0-1.5,0.1-2.2,0.4   c-0.7,0.3-1.3,0.7-1.8,1.2c-0.5,0.5-0.9,1.1-1.2,1.9c-0.3,0.7-0.4,1.6-0.4,2.5c0,0.9,0.1,1.7,0.4,2.4c0.3,0.7,0.7,1.4,1.2,1.9   c0.5,0.5,1.1,0.9,1.8,1.2c0.7,0.3,1.4,0.4,2.2,0.4c0.8,0,1.5-0.1,2.2-0.4s1.3-0.7,1.8-1.2c0.5-0.5,0.9-1.1,1.2-1.9   c0.3-0.7,0.4-1.5,0.4-2.4c0-0.9-0.1-1.8-0.4-2.5C113.7,16.6,113.3,16,112.8,15.5z"></path>		<ellipse transform="matrix(0.9871 -0.1602 0.1602 0.9871 -0.396 3.6491)" class="st1" cx="22.4" cy="4.3" rx="3.7" ry="3.7"></ellipse>		<path class="st3" d="M8.3,0.4H2.7v8.7H0v5.6h2.7v6.5c0,1.3,0.3,2.6,0.8,3.8c0.5,1.2,1.2,2.2,2.1,3.1c0.9,0.9,1.9,1.6,3.1,2.1   c1.2,0.5,2.5,0.8,3.8,0.8h4.2v-5.6h-4.2c-0.6,0-1.1-0.1-1.7-0.3c-0.5-0.2-1-0.5-1.3-0.9c-0.4-0.4-0.7-0.8-0.9-1.3   c-0.2-0.5-0.3-1.1-0.3-1.6v-6.5h8.5V9.2H8.3V0.4z"></path>		<path class="st3" d="M19.9,10v21h5.6V9.8c-0.9,0.5-1.9,0.8-3,0.8C21.5,10.6,20.6,10.4,19.9,10z"></path>		<path class="st3" d="M48.8,11.5c-1-1-2.2-1.8-3.6-2.3c-1.4-0.6-2.8-0.8-4.3-0.8c-0.7,0-1.4,0.1-2.1,0.3c-0.7,0.2-1.4,0.4-2,0.7   c-0.6,0.3-1.3,0.7-1.9,1.1c-0.6,0.4-1.2,0.9-1.7,1.3l-2.2-2.6h-1.3v30.2h5.6v-9.8c0.4,0.2,0.9,0.5,1.3,0.7   c0.5,0.2,0.9,0.4,1.4,0.6c0.5,0.2,0.9,0.3,1.4,0.4c0.5,0.1,1,0.2,1.5,0.2c1.5,0,3-0.3,4.3-0.8c1.4-0.5,2.5-1.3,3.6-2.3   c1-1,1.8-2.2,2.4-3.7c0.6-1.4,0.9-3.1,0.9-4.9c0-1.7-0.3-3.3-0.9-4.7C50.7,13.7,49.9,12.5,48.8,11.5z M46.1,22.3   c-0.3,0.7-0.7,1.4-1.2,1.9c-0.5,0.5-1.1,0.9-1.8,1.2c-0.7,0.3-1.4,0.4-2.2,0.4c-0.8,0-1.5-0.1-2.2-0.4s-1.3-0.7-1.8-1.2   c-0.5-0.5-0.9-1.1-1.2-1.9c-0.3-0.7-0.4-1.5-0.4-2.4c0-0.9,0.1-1.8,0.4-2.5c0.3-0.7,0.7-1.4,1.2-1.9c0.5-0.5,1.1-0.9,1.8-1.2   c0.7-0.3,1.4-0.4,2.2-0.4c0.8,0,1.5,0.1,2.2,0.4c0.7,0.3,1.3,0.7,1.8,1.2c0.5,0.5,0.9,1.1,1.2,1.9c0.3,0.7,0.4,1.6,0.4,2.5   C46.5,20.7,46.4,21.6,46.1,22.3z"></path>		<path class="st3" d="M61.8,0.4h-5.6v8.7h-2.7v5.6h2.7v6.5c0,1.3,0.3,2.6,0.8,3.8c0.5,1.2,1.2,2.2,2.1,3.1c0.9,0.9,1.9,1.6,3.1,2.1   c1.2,0.5,2.5,0.8,3.8,0.8h4.2v-5.6H66c-0.6,0-1.1-0.1-1.7-0.3c-0.5-0.2-1-0.5-1.3-0.9c-0.4-0.4-0.7-0.8-0.9-1.3   c-0.2-0.5-0.3-1.1-0.3-1.6v-6.5h8.5V9.2h-8.5V0.4z"></path>		<path class="st3" d="M119.1,15.1c-0.6-1.4-1.4-2.6-2.4-3.6c-1-1-2.2-1.8-3.6-2.3c-1.4-0.6-2.8-0.8-4.3-0.8c-0.7,0-1.4,0.1-2.1,0.3   c-0.7,0.2-1.4,0.4-2,0.7c-0.6,0.3-1.3,0.7-1.9,1.1c-0.6,0.4-1.2,0.9-1.7,1.3L99,9.1h-1.3v30.2h5.6v-9.8c0.4,0.2,0.9,0.5,1.3,0.7   c0.5,0.2,0.9,0.4,1.4,0.6c0.5,0.2,0.9,0.3,1.4,0.4c0.5,0.1,1,0.2,1.5,0.2c1.5,0,3-0.3,4.3-0.8c1.4-0.5,2.5-1.3,3.6-2.3   c1-1,1.8-2.2,2.4-3.7c0.6-1.4,0.9-3.1,0.9-4.9C120,18.1,119.7,16.6,119.1,15.1z M114,22.3c-0.3,0.7-0.7,1.4-1.2,1.9   c-0.5,0.5-1.1,0.9-1.8,1.2s-1.4,0.4-2.2,0.4c-0.8,0-1.5-0.1-2.2-0.4c-0.7-0.3-1.3-0.7-1.8-1.2c-0.5-0.5-0.9-1.1-1.2-1.9   c-0.3-0.7-0.4-1.5-0.4-2.4c0-0.9,0.1-1.8,0.4-2.5c0.3-0.7,0.7-1.4,1.2-1.9c0.5-0.5,1.1-0.9,1.8-1.2c0.7-0.3,1.4-0.4,2.2-0.4   c0.8,0,1.5,0.1,2.2,0.4c0.7,0.3,1.3,0.7,1.8,1.2c0.5,0.5,0.9,1.1,1.2,1.9c0.3,0.7,0.4,1.6,0.4,2.5C114.4,20.7,114.3,21.6,114,22.3   z"></path>	</g>	<g>		<polygon class="st4" points="64.3,1.4 65.9,1.4 65.9,6 67.3,6 67.3,1.4 68.9,1.4 68.9,0.1 64.3,0.1   "></polygon>		<polygon class="st4" points="74.3,3.6 76.3,3.6 76.3,2.3 74.3,2.3 74.3,1.4 76.4,1.4 76.4,0.1 72.9,0.1 72.9,6 76.5,6 76.5,4.7    74.3,4.7   "></polygon>		<polygon class="st4" points="82.2,0.1 80.8,0.1 80.8,6 84.4,6 84.4,4.7 82.2,4.7   "></polygon>		<polygon class="st4" points="90,3.6 92,3.6 92,2.3 90,2.3 90,1.4 92.1,1.4 92.1,0.1 88.6,0.1 88.6,6 92.2,6 92.2,4.7 90,4.7   "></polygon>		<path class="st4" d="M99.3,1.3c0.4,0,0.7,0.1,0.9,0.2l0.4,0.2l0.4-1.3l-0.3-0.1c-0.1-0.1-0.6-0.3-1.4-0.3c-1.8,0-3.1,1.3-3.1,3.1   s1.1,3,2.9,3c0.7,0,1.3-0.1,1.5-0.3l0.3-0.1l-0.3-1.3l-0.4,0.2c-0.2,0.1-0.6,0.2-0.9,0.2c-1,0-1.6-0.6-1.6-1.7   C97.6,2,98.2,1.3,99.3,1.3z"></path>		<path class="st4" d="M107.4,0c-1.6,0-2.8,1.3-2.8,3.1c0,1.8,1.1,3,2.7,3c1.4,0,2.8-1,2.8-3.1C110.1,1.2,109,0,107.4,0z M107.3,4.8   c-0.9,0-1.3-0.9-1.3-1.7c0-0.8,0.3-1.8,1.3-1.8c0.9,0,1.3,0.9,1.3,1.7C108.6,3.9,108.2,4.8,107.3,4.8z"></path>		<path class="st4" d="M119.9,0.1h-1.5l-1,2.8c-0.1,0.2-0.1,0.4-0.2,0.6c-0.1-0.2-0.1-0.4-0.2-0.6l-1-2.8h-1.5L114.2,6h1.4l0.2-2.6   c0,0,0-0.1,0-0.1l0.9,2.6h1l1-2.8c0,0,0,0,0,0c0,0.1,0,0.1,0,0.2l0.1,2.6h1.4L119.9,0.1z"></path>	</g></g></svg>