<?xml version="1.0" ?><!DOCTYPE svg  PUBLIC '-//W3C//DTD SVG 1.1//EN'  'http://www.w3.org/Graphics/SVG/1.1/DTD/svg11.dtd'><svg height="100%" style="fill-rule:evenodd;clip-rule:evenodd;stroke-linejoin:round;stroke-miterlimit:2;" version="1.1" viewBox="0 0 32 32" width="100%" xml:space="preserve" xmlns="http://www.w3.org/2000/svg" xmlns:serif="http://www.serif.com/" xmlns:xlink="http://www.w3.org/1999/xlink"><path d="M27,4.021c0,-1.657 -1.343,-3 -3,-3l-16.012,-0c-1.657,-0 -3,1.343 -3,3c-0,5.155 -0,18.851 -0,24.006c-0,1.657 1.343,3 3,3l16.012,-0c1.657,-0 3,-1.343 3,-3l-0,-24.006Zm-16.008,23l10,-0c0.552,-0 1,-0.448 1,-1c-0,-0.552 -0.448,-1 -1,-1l-10,-0c-0.552,-0 -1,0.448 -1,1c-0,0.552 0.448,1 1,1Zm-0,-3.994l10,-0c0.552,-0 1,-0.448 1,-1c-0,-0.552 -0.448,-1 -1,-1l-10,-0c-0.552,-0 -1,0.448 -1,1c-0,0.552 0.448,1 1,1Zm3.081,-11.735c-2.369,0.8 -4.077,3.044 -4.081,5.686c-0.001,0.552 0.446,1.001 0.998,1.001c0.552,0.001 1.001,-0.446 1.002,-0.998c0.003,-2.208 1.79,-4.002 3.993,-4.002c2.202,0 3.99,1.794 3.993,4.002c0.001,0.552 0.449,0.999 1.001,0.998c0.552,-0 1,-0.449 0.999,-1.001c-0.004,-2.63 -1.697,-4.866 -4.049,-5.675c0.659,-0.55 1.079,-1.378 1.079,-2.303c-0,-1.656 -1.345,-3 -3,-3c-1.656,0 -3,1.344 -3,3c-0,0.919 0.413,1.742 1.065,2.292Z"/></svg>